<svg width="199" height="31" fill="none" xmlns="http://www.w3.org/2000/svg">
  <path
    fill-rule="evenodd"
    clip-rule="evenodd"
    d="M47.35 3.625a.312.312 0 0 1-.23.082h-7.234c-.07 0-.105.035-.105.104v4.416c0 .07.035.104.105.104h4.926c.097 0 .173.028.228.083a.307.307 0 0 1 .083.228v1.099a.306.306 0 0 1-.083.228.304.304 0 0 1-.228.082h-4.926c-.07 0-.105.035-.105.104v6.034a.304.304 0 0 1-.083.228.304.304 0 0 1-.227.082h-1.373a.31.31 0 0 1-.23-.082.307.307 0 0 1-.082-.228V2.296a.31.31 0 0 1 .082-.228.314.314 0 0 1 .23-.083h9.021c.098 0 .173.028.23.083a.313.313 0 0 1 .083.228v1.098a.313.313 0 0 1-.083.23Zm7.836 2.446c.151.083.209.215.166.395l-.291 1.348c-.016.138-.083.208-.209.208A.514.514 0 0 1 54.687 8a2.234 2.234 0 0 0-.708-.104 1.764 1.764 0 0 0-.312.022c-.651.028-1.19.252-1.611.675-.423.421-.634.971-.634 1.648v5.951a.303.303 0 0 1-.083.228.309.309 0 0 1-.228.083h-1.373a.304.304 0 0 1-.227-.083c-.058-.055-.083-.13-.083-.228V6.258c0-.096.026-.172.083-.227a.304.304 0 0 1 .227-.083h1.373c.096 0 .172.027.228.083.056.055.083.13.083.227v.954c0 .056.01.088.032.094.02.007.043-.01.071-.052.625-.94 1.47-1.41 2.537-1.41.417 0 .791.075 1.124.227Zm2.37 7.652c.304.926.834 1.649 1.59 2.167.754.519 1.652.777 2.692.776 1.01 0 1.891-.258 2.64-.777.747-.517 1.275-1.24 1.579-2.167.25-.732.374-1.583.374-2.55 0-.954-.124-1.783-.374-2.489-.319-.897-.85-1.606-1.59-2.124-.741-.519-1.61-.777-2.609-.777-1.054 0-1.961.258-2.724.777-.762.518-1.297 1.234-1.6 2.146-.237.678-.353 1.507-.353 2.489 0 .94.124 1.783.374 2.529Zm5.736.757c.416-.311.714-.75.894-1.318.153-.525.23-1.175.23-1.948 0-.774-.07-1.417-.21-1.93-.18-.566-.478-1.004-.894-1.316-.415-.312-.922-.467-1.517-.467-.569 0-1.059.156-1.474.467-.416.31-.715.75-.896 1.317-.152.484-.227 1.126-.227 1.929 0 .801.075 1.452.227 1.948.166.568.462 1.006.884 1.318.423.311.933.466 1.528.466a2.357 2.357 0 0 0 1.455-.466ZM77.97 9.45c0-1.12-.333-2.007-.998-2.664-.665-.656-1.567-.984-2.703-.984-1.164 0-2.037.366-2.62 1.098-.013.029-.036.035-.061.02-.028-.013-.042-.04-.042-.082v-.581a.307.307 0 0 0-.083-.227.31.31 0 0 0-.23-.083H69.86a.304.304 0 0 0-.228.083.302.302 0 0 0-.083.227v9.934a.304.304 0 0 0 .083.228.304.304 0 0 0 .228.083h1.373a.31.31 0 0 0 .23-.083.308.308 0 0 0 .082-.228V9.474c.069-.595.308-1.069.717-1.421.41-.353.912-.53 1.507-.53.666 0 1.2.215 1.602.643.4.429.603.989.603 1.68v6.344a.304.304 0 0 0 .082.228.305.305 0 0 0 .229.082h1.372a.31.31 0 0 0 .23-.082.308.308 0 0 0 .082-.228V9.45Zm8.502-1.95a.309.309 0 0 1-.229.084h-2.121c-.07 0-.103.034-.103.104V13.1c0 .595.127 1.016.384 1.266.257.249.67.373 1.237.373h.499a.31.31 0 0 1 .229.083.313.313 0 0 1 .082.228v1.078c0 .195-.104.304-.311.332l-.853.021c-1.066 0-1.864-.186-2.39-.56-.528-.373-.79-1.07-.79-2.094V7.689c0-.07-.035-.104-.105-.104h-1.143a.307.307 0 0 1-.229-.083.303.303 0 0 1-.083-.228V6.258c0-.096.027-.172.083-.227a.307.307 0 0 1 .229-.083H82c.07 0 .105-.034.105-.104V3.522c0-.097.027-.172.083-.228a.304.304 0 0 1 .228-.083h1.288c.098 0 .173.027.23.083a.31.31 0 0 1 .083.228v2.322c0 .07.033.104.103.104h2.121c.097 0 .173.027.229.083.056.055.083.13.083.227v1.016a.3.3 0 0 1-.082.228Zm9.895 5.973c-.083 0-.159.062-.228.186-.485.858-1.29 1.294-2.413 1.308-.68 0-1.247-.159-1.704-.477a2.27 2.27 0 0 1-.915-1.307c-.07-.22-.118-.593-.146-1.119 0-.07.036-.104.105-.104h6.568c.207 0 .312-.102.312-.31a20.165 20.165 0 0 0-.147-1.867c-.207-1.299-.657-2.291-1.35-2.975-.694-.684-1.697-1.026-3.014-1.026-1.067 0-1.976.276-2.724.828-.749.553-1.246 1.306-1.496 2.26-.153.527-.229 1.293-.229 2.303 0 1.132.173 2.12.52 2.964.347.817.86 1.441 1.538 1.877.68.436 1.511.653 2.495.653.916 0 1.717-.193 2.401-.581a4.059 4.059 0 0 0 1.592-1.597l.041-.166c0-.11-.055-.2-.166-.27l-.854-.518a.302.302 0 0 0-.186-.062ZM91.95 7.938c-.382.29-.64.692-.78 1.202-.109.379-.171.769-.186 1.162 0 .069.034.104.103.104h4.72c.07 0 .104-.035.104-.104-.028-.456-.07-.795-.124-1.016a2.354 2.354 0 0 0-.82-1.296c-.41-.325-.92-.488-1.529-.488-.61 0-1.108.145-1.488.436ZM109.4 9.45c0-1.12-.332-2.007-.998-2.664-.664-.656-1.564-.984-2.702-.984-1.163 0-2.036.366-2.618 1.098-.016.029-.036.035-.064.02-.027-.013-.042-.04-.042-.082v-.581a.303.303 0 0 0-.083-.227.302.302 0 0 0-.227-.083h-1.373a.304.304 0 0 0-.228.083.303.303 0 0 0-.083.227v9.934a.305.305 0 0 0 .083.228.304.304 0 0 0 .228.083h1.373a.303.303 0 0 0 .227-.083.298.298 0 0 0 .083-.228V9.474c.071-.595.309-1.068.719-1.421s.911-.53 1.507-.53c.665 0 1.199.215 1.601.643.401.429.603.989.603 1.68v6.344a.305.305 0 0 0 .083.228.306.306 0 0 0 .228.082h1.373a.306.306 0 0 0 .228-.082.3.3 0 0 0 .082-.228V9.45Zm9.897-7.381a.31.31 0 0 1 .228-.083h1.372a.316.316 0 0 1 .229.083.307.307 0 0 1 .083.228v13.893a.305.305 0 0 1-.083.228.31.31 0 0 1-.229.083h-1.372a.305.305 0 0 1-.228-.083c-.057-.055-.083-.13-.083-.228v-.539c0-.041-.015-.07-.041-.083-.028-.013-.057-.006-.083.022a3.193 3.193 0 0 1-1.071.799c-.408.185-.857.28-1.341.28-.998 0-1.826-.247-2.484-.736-.659-.49-1.141-1.186-1.444-2.085-.25-.69-.375-1.575-.375-2.653 0-1.01.104-1.845.311-2.51.291-.911.772-1.623 1.444-2.135.673-.511 1.521-.767 2.547-.767.485 0 .933.09 1.34.27.408.178.766.442 1.072.786.025.028.055.038.083.032.025-.007.041-.032.041-.073V2.3c.001-.098.027-.175.084-.23Zm-.645 6.49c.36.635.54 1.52.54 2.654 0 1.133-.166 2.004-.499 2.613-.416.746-1.017 1.12-1.807 1.12-.929 0-1.595-.38-1.996-1.141-.346-.65-.52-1.507-.52-2.571 0-1.133.222-2.045.666-2.737.429-.664 1.045-.996 1.85-.996.775 0 1.365.352 1.766 1.057Zm11.038 7.859a.305.305 0 0 1-.083-.228V2.298c0-.096.027-.172.083-.228a.31.31 0 0 1 .228-.083h1.394a.41.41 0 0 1 .374.208l3.492 5.557c.041.083.082.083.124 0l3.514-5.557a.41.41 0 0 1 .374-.208h1.392a.316.316 0 0 1 .229.083.307.307 0 0 1 .082.228v13.893a.3.3 0 0 1-.082.228.31.31 0 0 1-.229.083h-1.373a.303.303 0 0 1-.227-.083c-.057-.055-.083-.13-.083-.228V5.658c0-.056-.016-.086-.042-.094-.028-.007-.057.011-.083.052l-2.827 4.603a.408.408 0 0 1-.374.208h-.666a.41.41 0 0 1-.374-.208l-2.806-4.603c-.028-.041-.057-.059-.083-.052-.028.008-.041.038-.041.094V16.19a.306.306 0 0 1-.083.228.312.312 0 0 1-.23.083h-1.372a.31.31 0 0 1-.228-.083Zm21.974-2.945c-.083 0-.16.062-.23.186-.485.858-1.289 1.294-2.412 1.308-.679 0-1.247-.159-1.704-.477a2.274 2.274 0 0 1-.915-1.307c-.069-.22-.118-.593-.146-1.119 0-.07.035-.104.105-.104h6.568c.208 0 .312-.102.312-.31a19.757 19.757 0 0 0-.146-1.867c-.207-1.299-.659-2.291-1.35-2.975-.694-.684-1.698-1.026-3.015-1.026-1.066 0-1.975.276-2.723.828-.749.553-1.248 1.306-1.497 2.26-.153.527-.228 1.293-.228 2.303 0 1.132.173 2.12.519 2.964.346.817.859 1.441 1.538 1.877.679.436 1.511.653 2.496.653.915 0 1.715-.193 2.401-.581a4.056 4.056 0 0 0 1.59-1.597l.042-.166c0-.11-.055-.2-.166-.27l-.853-.518a.303.303 0 0 0-.186-.062Zm-4.419-5.536c-.381.29-.641.692-.779 1.202-.11.379-.172.768-.187 1.162 0 .069.033.104.104.104h4.719c.069 0 .105-.035.105-.104-.028-.456-.07-.795-.124-1.016a2.361 2.361 0 0 0-.822-1.296c-.408-.325-.918-.488-1.528-.488-.611 0-1.107.145-1.488.436Zm17.452 1.513c0-1.12-.333-2.007-.998-2.664-.665-.656-1.566-.984-2.702-.984-1.163 0-2.036.366-2.619 1.098-.015.029-.035.035-.063.02-.027-.013-.042-.04-.042-.082v-.581a.303.303 0 0 0-.083-.227.304.304 0 0 0-.227-.083h-1.373a.308.308 0 0 0-.229.083c-.056.055-.082.13-.082.227v9.934a.3.3 0 0 0 .082.228.308.308 0 0 0 .229.083h1.373a.303.303 0 0 0 .227-.083.305.305 0 0 0 .083-.228V9.474c.071-.595.308-1.068.718-1.421s.911-.53 1.508-.53c.665 0 1.198.215 1.601.643.401.429.603.989.603 1.68v6.344a.298.298 0 0 0 .083.228.306.306 0 0 0 .228.082h1.373a.303.303 0 0 0 .227-.082.305.305 0 0 0 .083-.228V9.45Zm8.502-1.95a.306.306 0 0 1-.229.084h-2.12c-.069 0-.105.034-.105.104V13.1c0 .595.129 1.016.385 1.266.257.249.668.373 1.237.373h.499a.316.316 0 0 1 .229.083.307.307 0 0 1 .082.228v1.078c0 .195-.104.304-.311.332l-.853.021c-1.067 0-1.863-.186-2.391-.56-.527-.373-.79-1.07-.79-2.094V7.689c0-.07-.034-.104-.103-.104h-1.144a.306.306 0 0 1-.229-.083.305.305 0 0 1-.083-.228V6.258c0-.096.027-.172.083-.227a.306.306 0 0 1 .229-.083h1.144c.069 0 .103-.034.103-.104V3.522a.31.31 0 0 1 .083-.228.31.31 0 0 1 .23-.083h1.288c.097 0 .173.027.228.083.056.056.083.13.083.228v2.322c0 .07.034.104.105.104h2.12c.098 0 .174.027.229.083a.311.311 0 0 1 .083.227v1.016a.3.3 0 0 1-.082.228Zm2.87 6.222c.304.926.833 1.649 1.588 2.167.756.519 1.653.777 2.693.776 1.012 0 1.893-.258 2.641-.777.748-.517 1.274-1.24 1.579-2.167.25-.732.374-1.583.374-2.55 0-.954-.124-1.783-.374-2.489-.318-.897-.849-1.606-1.59-2.124-.742-.519-1.61-.777-2.609-.777-1.054 0-1.961.258-2.724.777-.763.518-1.297 1.234-1.601 2.146-.235.678-.352 1.507-.352 2.489 0 .94.125 1.783.375 2.529Zm5.736.757c.415-.311.713-.75.895-1.318.151-.525.227-1.175.227-1.948 0-.774-.069-1.417-.208-1.93-.179-.566-.477-1.004-.893-1.316-.416-.312-.922-.467-1.518-.467-.569 0-1.059.156-1.475.467-.416.31-.714.75-.894 1.317-.153.484-.229 1.126-.229 1.929 0 .801.076 1.452.229 1.948.166.568.46 1.006.883 1.318.422.311.932.466 1.527.466a2.358 2.358 0 0 0 1.456-.466Zm12.182-8.014c.043-.18-.013-.312-.166-.395a2.671 2.671 0 0 0-1.124-.227c-1.066 0-1.911.47-2.535 1.41-.028.041-.053.059-.073.052-.02-.006-.032-.038-.032-.094v-.954c0-.096-.026-.172-.082-.227a.306.306 0 0 0-.228-.083h-1.373a.304.304 0 0 0-.228.083.303.303 0 0 0-.083.227v9.934a.305.305 0 0 0 .083.228.304.304 0 0 0 .228.083h1.373a.307.307 0 0 0 .228-.083.3.3 0 0 0 .082-.228v-5.95c0-.678.212-1.228.635-1.65.422-.422.959-.646 1.611-.674.069-.014.173-.022.312-.022.239-.003.478.032.707.104a.507.507 0 0 0 .165.022c.126 0 .194-.07.209-.208l.291-1.348Z"
    fill="#1C2122"
  />
  <path
    d="M26.718 12.883a.849.849 0 0 1-.344-.073L19.16 9.588a.84.84 0 0 1 0-1.532l7.214-3.21a.843.843 0 0 1 1.11.423.84.84 0 0 1-.426 1.107l-5.496 2.447 5.497 2.456a.838.838 0 0 1-.341 1.604Z"
    fill="#67BECE"
  />
  <path
    d="M16.886 24.572c-7.931 0-14.865-5.34-16.859-12.987a.84.84 0 0 1 1.626-.422c1.809 6.913 8.07 11.735 15.233 11.733a.84.84 0 1 1 0 1.676Z"
    fill="#3F54A3"
  />
  <path
    d="M13.99 17.611a.84.84 0 0 1-.84-.838V.838a.84.84 0 0 1 1.68 0v15.935a.84.84 0 0 1-.84.838Z"
    fill="#67BECE"
  />
  <path
    d="M45.709 27a.835.835 0 0 1-.594-.246l-3.668-3.66-3.667 3.659a.842.842 0 0 1-1.19 0 .837.837 0 0 1 0-1.186l4.263-4.252a.84.84 0 0 1 1.188 0l4.263 4.253A.837.837 0 0 1 45.709 27Z"
    fill="#F9C7C5"
  />
  <path
    d="M54.231 27a.837.837 0 0 1-.593-.246l-3.668-3.66-3.666 3.659a.842.842 0 0 1-1.407-.376.837.837 0 0 1 .218-.81l4.261-4.252a.868.868 0 0 1 1.19 0l4.262 4.253A.837.837 0 0 1 54.23 27Z"
    fill="#F9C7C5"
  />
  <path
    d="M62.757 27a.837.837 0 0 1-.595-.246l-3.667-3.66-3.667 3.659a.842.842 0 0 1-1.407-.376.837.837 0 0 1 .218-.81l4.262-4.252a.842.842 0 0 1 1.188 0l4.261 4.253A.837.837 0 0 1 62.757 27Z"
    fill="#F9C7C5"
  />
  <path
    d="M71.278 27a.835.835 0 0 1-.592-.246l-3.668-3.66-3.668 3.659a.842.842 0 0 1-1.188 0 .837.837 0 0 1 0-1.186l4.261-4.252a.868.868 0 0 1 1.189 0l4.264 4.253A.837.837 0 0 1 71.278 27Z"
    fill="#F9C7C5"
  />
  <path
    d="M79.804 27a.837.837 0 0 1-.594-.246l-3.669-3.66-3.665 3.659a.842.842 0 0 1-1.19 0 .837.837 0 0 1 0-1.186l4.262-4.252a.868.868 0 0 1 1.19 0l4.262 4.253A.837.837 0 0 1 79.804 27Z"
    fill="#F9C7C5"
  />
  <path
    d="M88.326 27a.835.835 0 0 1-.593-.246l-3.668-3.66-3.666 3.659a.842.842 0 0 1-1.407-.376.837.837 0 0 1 .218-.81l4.261-4.252a.868.868 0 0 1 1.189 0l4.263 4.253A.837.837 0 0 1 88.326 27Z"
    fill="#F9C7C5"
  />
  <path
    d="M96.85 27a.837.837 0 0 1-.593-.246l-3.668-3.66-3.666 3.659a.842.842 0 0 1-1.407-.376.837.837 0 0 1 .218-.81l4.261-4.252a.868.868 0 0 1 1.189 0l4.263 4.253A.837.837 0 0 1 96.85 27Z"
    fill="#F9C7C5"
  />
  <path
    d="M105.374 27a.839.839 0 0 1-.595-.246l-3.666-3.66-3.668 3.659a.842.842 0 0 1-1.406-.376.837.837 0 0 1 .218-.81l4.262-4.252a.842.842 0 0 1 1.188 0l4.261 4.253a.837.837 0 0 1-.594 1.432Z"
    fill="#F9C7C5"
  />
  <path
    d="M113.896 27a.837.837 0 0 1-.593-.246l-3.667-3.66-3.668 3.659a.842.842 0 0 1-1.189 0 .838.838 0 0 1 0-1.186l4.263-4.252a.84.84 0 0 1 1.188 0l4.262 4.253a.836.836 0 0 1-.596 1.432Z"
    fill="#F9C7C5"
  />
  <path
    d="M122.421 27a.838.838 0 0 1-.594-.246l-3.667-3.66-3.667 3.659a.841.841 0 0 1-1.188 0 .836.836 0 0 1 0-1.186l4.261-4.252a.842.842 0 0 1 1.188 0l4.262 4.253a.837.837 0 0 1-.595 1.432Z"
    fill="#F9C7C5"
  />
  <path
    d="M135.54 22.16v2.75c0 .04-.02.06-.06.06h-2.53c-.04 0-.06-.02-.06-.06v-2.75c0-.1-.06-.16-.16-.16h-.84c-.1 0-.16.06-.16.16v6.68c0 .1.06.16.16.16h.84c.1 0 .16-.06.16-.16v-2.81c0-.04.02-.06.06-.06h2.53c.04 0 .06.03.06.06v2.81c0 .1.06.16.16.16h.84c.1 0 .16-.06.16-.16v-6.68c0-.1-.06-.16-.16-.16h-.84c-.1 0-.16.06-.16.16Zm8.817 6.84h.84c.1 0 .16-.06.16-.16v-6.68c0-.1-.06-.16-.16-.16h-.84c-.1 0-.16.06-.16.16v6.68c0 .1.06.16.16.16Zm12.517 0h.88c.12 0 .17-.08.12-.19l-1.38-2.86c-.02-.03-.01-.07.03-.08.82-.24 1.33-.91 1.33-1.84 0-1.22-.83-2.04-2.07-2.04h-2.71c-.1 0-.16.06-.16.16v6.69c0 .1.06.16.16.16h.84c.1 0 .16-.06.16-.16v-2.8c0-.04.03-.06.06-.06h1.17c.03 0 .06.01.07.04l1.31 2.86c.04.09.1.12.19.12Zm-2.74-6.01h1.49c.64 0 1.07.43 1.07 1.06 0 .61-.43 1.03-1.07 1.03h-1.49c-.04 0-.06-.02-.06-.06v-1.97c0-.04.02-.06.06-.06ZM165.307 29h.84c.1 0 .16-.06.16-.16v-6.68c0-.1-.06-.16-.16-.16h-.84c-.1 0-.16.06-.16.16v6.68c0 .1.06.16.16.16Zm8.717 0h.83c.1 0 .16-.05.16-.16l-.01-4.54c0-.06.04-.07.07-.02l2.8 4.61c.04.07.12.11.2.11h.82c.1 0 .16-.06.16-.16v-6.68c0-.1-.06-.16-.16-.16h-.84c-.1 0-.16.06-.16.16v4.51c0 .06-.04.07-.07.02l-2.8-4.58a.23.23 0 0 0-.2-.11h-.8c-.1 0-.16.06-.16.16v6.68c0 .1.06.16.16.16Zm14.921.08c1.5 0 2.49-.87 2.49-2.43v-1.24c0-.1-.06-.16-.16-.16h-2.23c-.1 0-.16.06-.16.16v.66c0 .1.06.16.16.16h1.18c.04 0 .06.02.06.06v.61c0 .74-.5 1.18-1.29 1.18-.82 0-1.4-.53-1.4-1.33v-2.5c0-.8.54-1.33 1.35-1.33.82 0 1.34.53 1.34 1.24v.08c0 .05.06.09.16.09h.83c.1 0 .16-.06.16-.16v-.04c0-1.26-.99-2.21-2.49-2.21-1.51 0-2.51.94-2.51 2.37v2.42c0 1.42 1 2.37 2.51 2.37Z"
    fill="#7F8C8F"
  />
</svg>
